# xmcd CD database file
#
# Track frame offsets:
#	150
#	10659
#	22036
#	34965
#	47996
#	58271
#	68770
#	78913
#	89817
#	103044
#	114104
#	129437
#
# Disc length: 1894 seconds
#
# Revision: 0
# Processed by: cddbd v1.5.2PL0 Copyright (c) Steve Scherf et al.
# Submitted via: CDex 1.70beta2
#
DISCID=9d07640c
DTITLE=BC - USA - Branded Country
DYEAR=2001
DGENRE=Country
TTITLE0=Burning Memnories - Waylon Jennings
TTITLE1=That's How I Got To Memphis - Bobby Bare
TTITLE2=Rhinestone Cowboy - Glenn Cambell
TTITLE3=Send Me No Roses - Tommy Overstreet
TTITLE4=Seven Lonely Days - Dave Dudley
TTITLE5=I'm So Lonesome I Could Cry - Billie Jo Spears
TTITLE6=In the Jailhouse Now - Webgb Pierce
TTITLE7=Soul Song - Joe Stampley
TTITLE8=Three Days - Farton Young
TTITLE9=Hidin' Out - Patsy Cline
TTITLE10=I'll Paint You A Song - Roy Clark
TTITLE11=Rose Gardenh - Lynn Anderson
EXTD=YEAR: 2001
EXTT0=
EXTT1=
EXTT2=
EXTT3=
EXTT4=
EXTT5=
EXTT6=
EXTT7=
EXTT8=
EXTT9=
EXTT10=
EXTT11=
PLAYORDER=
